<svg xmlns="http://www.w3.org/2000/svg" viewBox="0 0 233.4 33.6"><defs><style>.cls-1{fill:#fff;}</style></defs><title>logo</title><g id="Layer_2" data-name="Layer 2"><g id="work"><path class="cls-1" d="M0,.62H5.69V26.5H0Z"/><path class="cls-1" d="M30.77,28.92l-3.66-3.33a12.55,12.55,0,0,1-6.27,1.52c-8,0-12.72-6-12.72-13.45C8.12,6,12.83,0,20.84,0S33.56,6,33.56,13.66a14.23,14.23,0,0,1-3.37,9.53l3.23,2.94Zm-7.43-12,2.94,2.68a10,10,0,0,0,1.59-5.95c0-4.53-1.92-8.88-7-8.88s-7,4.35-7,8.88c0,4.31,1.92,8.66,7,8.66A4.2,4.2,0,0,0,23.12,22L20.7,19.75Z"/><path class="cls-1" d="M41.71.62H53.38c6.45,0,9,4.1,9,8.3s-2.5,8.3-9,8.3h-6V26.5H41.71ZM47.4,12.79h4.42c2.65,0,5-.58,5-3.88S54.47,5,51.82,5H47.4Z"/><path class="cls-1" d="M82.19,26.5H77.3V23.89h-.11A6.68,6.68,0,0,1,71.46,27c-5.47,0-6.85-3.08-6.85-7.72V7.76h5.15V18.34c0,3.08.91,4.6,3.3,4.6,2.79,0,4-1.56,4-5.36V7.76h5.15Z"/><path class="cls-1" d="M85.38,7.76h4.89v3.48h.07a6.62,6.62,0,0,1,6-4,3.86,3.86,0,0,1,1.12.18v4.78A9.3,9.3,0,0,0,95.6,12c-3.77,0-5.07,2.72-5.07,6V26.5H85.38Z"/><path class="cls-1" d="M110.78,14.35A3.51,3.51,0,0,0,107,11.13c-3.3,0-4.39,3.34-4.39,6.09s1.05,5.91,4.28,5.91c2.39,0,3.77-1.52,4.1-3.81h5c-.65,5-4.09,7.68-9,7.68-5.66,0-9.46-4-9.46-9.61,0-5.84,3.48-10.15,9.57-10.15,4.42,0,8.48,2.32,8.81,7.1Z"/><path class="cls-1" d="M118.1.62h5.15v9.75h.11a6.59,6.59,0,0,1,5.47-3.12c5.47,0,6.85,3.08,6.85,7.72V26.5h-5.15V15.91c0-3.08-.91-4.6-3.3-4.6-2.79,0-4,1.56-4,5.36V26.5H118.1Z"/><path class="cls-1" d="M138.64,13.52c.29-4.82,4.6-6.27,8.81-6.27,3.73,0,8.23.83,8.23,5.33v9.75a9.58,9.58,0,0,0,.65,4.17h-5.22a7.66,7.66,0,0,1-.36-1.81A8.6,8.6,0,0,1,144.44,27c-3.55,0-6.38-1.78-6.38-5.62,0-4.24,3.19-5.26,6.38-5.69s6.09-.36,6.09-2.46-1.52-2.54-3.33-2.54-3.23.8-3.41,2.83Zm11.89,3.81c-.87.76-2.68.8-4.28,1.09s-3,.87-3,2.76,1.49,2.39,3.15,2.39c4,0,4.17-3.19,4.17-4.31Z"/><path class="cls-1" d="M162.2,20.41c0,2.25,1.92,3.15,4,3.15,1.49,0,3.37-.58,3.37-2.39,0-1.56-2.14-2.1-5.84-2.9-3-.65-5.94-1.7-5.94-5,0-4.78,4.13-6,8.16-6s7.87,1.38,8.26,6h-4.89c-.15-2-1.67-2.54-3.52-2.54-1.16,0-2.86.22-2.86,1.74,0,1.85,2.9,2.1,5.84,2.79s5.94,1.78,5.94,5.26c0,4.93-4.28,6.53-8.55,6.53s-8.59-1.63-8.81-6.6Z"/><path class="cls-1" d="M182.24,4.86h-5.15V.62h5.15Zm-5.15,2.9h5.15V26.5h-5.15Z"/><path class="cls-1" d="M184.85,7.76h4.89v2.61h.11a6.68,6.68,0,0,1,5.73-3.12c5.47,0,6.85,3.08,6.85,7.72V26.5h-5.15V15.91c0-3.08-.91-4.6-3.3-4.6-2.79,0-4,1.56-4,5.36V26.5h-5.15Z"/><path class="cls-1" d="M222.9,25.3c0,3.08-1.09,8.3-9.71,8.3-3.7,0-8-1.74-8.26-6H210c.47,1.92,2,2.57,3.84,2.57,2.86,0,4.17-2,4.13-4.64V23.05h-.07a6.33,6.33,0,0,1-5.62,2.9c-5.62,0-8-4.28-8-9.42,0-4.86,2.79-9.28,8-9.28a5.83,5.83,0,0,1,5.58,3H218V7.76h4.89ZM218,16.89c0-3-1.05-5.76-4.38-5.76-2.9,0-4.17,2.54-4.17,5.33s1,5.62,4.17,5.62C216.56,22.07,218,19.57,218,16.89Z"/><path class="cls-1" d="M225.78,4.69h-1.35V3.86h3.7v.84h-1.36V8.38h-1Z"/><path class="cls-1" d="M228.53,3.86h1.4L231,7h0l1-3.11h1.4V8.38h-.93V5.18h0l-1.11,3.2h-.77l-1.11-3.17h0V8.38h-.93Z"/></g></g></svg>